{  "asset": {    "version": "2.0",    "generator": "THREE.GLTFExporter"  },  "scenes": [    {      "name": "AuxScene",      "nodes": [        8      ]    }  ],  "scene": 0,  "nodes": [    {      "mesh": 0    },    {      "mesh": 1    },    {      "mesh": 2    },    {      "mesh": 3    },    {      "mesh": 4    },    {      "mesh": 5    },    {      "mesh": 6    },    {      "mesh": 7    },    {      "children": [        0,        1,        2,        3,        4,        5,        6,        7      ]    }  ],  "bufferViews": [    {      "buffer": 0,      "byteOffset": 0,      "byteLength": 693144,      "target": 34962,      "byteStride": 12    },    {      "buffer": 0,      "byteOffset": 693144,      "byteLength": 693144,      "target": 34962,      "byteStride": 12    },    {      "buffer": 0,      "byteOffset": 1386288,      "byteLength": 25056,      "target": 34962,      "byteStride": 12    },    {      "buffer": 0,      "byteOffset": 1411344,      "byteLength": 25056,      "target": 34962,      "byteStride": 12    },    {      "buffer": 0,      "byteOffset": 1436400,      "byteLength": 11304,      "target": 34962,      "byteStride": 12    },    {      "buffer": 0,      "byteOffset": 1447704,      "byteLength": 11304,      "target": 34962,      "byteStride": 12    },    {      "buffer": 0,      "byteOffset": 1459008,      "byteLength": 86256,      "target": 34962,      "byteStride": 12    },    {      "buffer": 0,      "byteOffset": 1545264,      "byteLength": 86256,      "target": 34962,      "byteStride": 12    },    {      "buffer": 0,      "byteOffset": 1631520,      "byteLength": 86256,      "target": 34962,      "byteStride": 12    },    {      "buffer": 0,      "byteOffset": 1717776,      "byteLength": 86256,      "target": 34962,      "byteStride": 12    },    {      "buffer": 0,      "byteOffset": 1804032,      "byteLength": 20808,      "target": 34962,      "byteStride": 12    },    {      "buffer": 0,      "byteOffset": 1824840,      "byteLength": 20808,      "target": 34962,      "byteStride": 12    },    {      "buffer": 0,      "byteOffset": 1845648,      "byteLength": 432,      "target": 34962,      "byteStride": 12    },    {      "buffer": 0,      "byteOffset": 1846080,      "byteLength": 432,      "target": 34962,      "byteStride": 12    },    {      "buffer": 0,      "byteOffset": 1846512,      "byteLength": 720,      "target": 34962,      "byteStride": 12    },    {      "buffer": 0,      "byteOffset": 1847232,      "byteLength": 720,      "target": 34962,      "byteStride": 12    }  ],  "buffers": [    {      "byteLength": 1847952,      "uri": "data:application/octet-stream;base64,"    }  ],  "accessors": [    {      "bufferView": 0,      "componentType": 5126,      "count": 57762,      "max": [        10.987349510192871,        58.34703063964844,        14.152606964111328      ],      "min": [        -16.305805206298828,        -58.34703063964844,        -8.77139663696289      ],      "type": "VEC3"    },    {      "bufferView": 1,      "componentType": 5126,      "count": 57762,      "max": [        1,        0.9998779296875,        1      ],      "min": [        -0.9998779296875,        -0.9998779296875,        -1      ],      "type": "VEC3"    },    {      "bufferView": 2,      "componentType": 5126,      "count": 2088,      "max": [        0.8518838882446289,        -35.7706184387207,        1.2830512523651123      ],      "min": [        -6.167852401733398,        -42.724544525146484,        -7.871434211730957      ],      "type": "VEC3"    },    {      "bufferView": 3,      "componentType": 5126,      "count": 2088,      "max": [        0.99951171875,        0.9953612089157104,        0.999969482421875      ],      "min": [        -0.9998779296875,        -0.9982299208641052,        -0.99993896484375      ],      "type": "VEC3"    },    {      "bufferView": 4,      "componentType": 5126,      "count": 942,      "max": [        -0.2886009216308594,        -40.833614349365234,        2.044787645339966      ],      "min": [        -4.375609874725342,        -46.96187210083008,        -1.977429747581482      ],      "type": "VEC3"    },    {      "bufferView": 5,      "componentType": 5126,      "count": 942,      "max": [        0.9925229549407959,        0.9886776208877563,        0.9768059253692627      ],      "min": [        -0.9925229549407959,        -0.9886776208877563,        -0.9768059253692627      ],      "type": "VEC3"    },    {      "bufferView": 6,      "componentType": 5126,      "count": 7188,      "max": [        11.214051246643066,        23.148643493652344,        -2.639261245727539      ],      "min": [        -16.188613891601562,        11.635297775268555,        -14.152608871459961      ],      "type": "VEC3"    },    {      "bufferView": 7,      "componentType": 5126,      "count": 7188,      "max": [        0.99993896484375,        1,        1      ],      "min": [        -0.99993896484375,        -1,        -1      ],      "type": "VEC3"    },    {      "bufferView": 8,      "componentType": 5126,      "count": 7188,      "max": [        9.874424934387207,        -42.628108978271484,        -3.123539447784424      ],      "min": [        -15.287736892700195,        -52.23891067504883,        -12.734335899353027      ],      "type": "VEC3"    },    {      "bufferView": 9,      "componentType": 5126,      "count": 7188,      "max": [        0.99993896484375,        1,        1      ],      "min": [        -0.99993896484375,        -1,        -1      ],      "type": "VEC3"    },    {      "bufferView": 10,      "componentType": 5126,      "count": 1734,      "max": [        16.305805206298828,        -32.05459213256836,        4.397609710693359      ],      "min": [        10.627522468566895,        -32.88429260253906,        -0.29632413387298584      ],      "type": "VEC3"    },    {      "bufferView": 11,      "componentType": 5126,      "count": 1734,      "max": [        0.6239814162254333,        0.9966124296188354,        0.9208959937095642      ],      "min": [        -0.6239814162254333,        -0.9964598417282104,        -0.8711813688278198      ],      "type": "VEC3"    },    {      "bufferView": 12,      "componentType": 5126,      "count": 36,      "max": [        10.987349510192871,        -33.55707550048828,        9.545065879821777      ],      "min": [        10.987326622009277,        -40.521934509277344,        -2.7835187911987305      ],      "type": "VEC3"    },    {      "bufferView": 13,      "componentType": 5126,      "count": 36,      "max": [        1,        0,        0      ],      "min": [        1,        0,        0      ],      "type": "VEC3"    },    {      "bufferView": 14,      "componentType": 5126,      "count": 60,      "max": [        14.891745567321777,        -33.3271484375,        -3.826620578765869      ],      "min": [        10.615960121154785,        -39.600799560546875,        -7.685454368591309      ],      "type": "VEC3"    },    {      "bufferView": 15,      "componentType": 5126,      "count": 60,      "max": [        0.6035340428352356,        0.904995858669281,        0.5786919593811035      ],      "min": [        -0.5775628089904785,        -0.904080331325531,        -0.6042359471321106      ],      "type": "VEC3"    }  ],  "materials": [    {      "pbrMetallicRoughness": {        "baseColorFactor": [          0.6795474543827548,          0.1529254061575552,          0,          1        ],        "metallicFactor": 0.5,        "roughnessFactor": 0.5      },      "name": "mat0"    },    {      "pbrMetallicRoughness": {        "baseColorFactor": [          0,          0,          0,          1        ],        "metallicFactor": 0.5,        "roughnessFactor": 0.5      },      "name": "mat1"    },    {      "pbrMetallicRoughness": {        "baseColorFactor": [          0.004776597992017055,          0.004776597992017055,          0.004776597992017055,          1        ],        "metallicFactor": 0.5,        "roughnessFactor": 0.5      },      "name": "mat2"    },    {      "pbrMetallicRoughness": {        "baseColorFactor": [          0.6038273388475408,          0.6038273388475408,          0.6038273388475408,          1        ],        "metallicFactor": 0.5,        "roughnessFactor": 0.5      },      "name": "mat3"    },    {      "pbrMetallicRoughness": {        "baseColorFactor": [          0.07036123378496091,          0.07036123378496091,          0.07036123378496091,          1        ],        "metallicFactor": 0.5,        "roughnessFactor": 0.5      },      "doubleSided": true,      "name": "mat4"    },    {      "pbrMetallicRoughness": {        "baseColorFactor": [          0.6038273388475408,          0.6038273388475408,          0.6038273388475408,          1        ],        "metallicFactor": 0.5,        "roughnessFactor": 0.5      },      "name": "mat5"    },    {      "pbrMetallicRoughness": {        "baseColorFactor": [          0.6038273388475408,          0.6038273388475408,          0.6038273388475408,          1        ],        "metallicFactor": 0.5,        "roughnessFactor": 0.5      },      "name": "mat6"    },    {      "pbrMetallicRoughness": {        "baseColorFactor": [          0.6038273388475408,          0.059512012288486155,          0.001214396284752,          1        ],        "metallicFactor": 0.5,        "roughnessFactor": 0.5      },      "name": "mat7"    },    {      "pbrMetallicRoughness": {        "baseColorFactor": [          0.029558206860191266,          0.11443600359375942,          0.44520230736526767,          1        ],        "metallicFactor": 0.5,        "roughnessFactor": 0.5      },      "name": "mat9"    },    {      "pbrMetallicRoughness": {        "baseColorFactor": [          0.6038273388475408,          0,          0,          1        ],        "metallicFactor": 0.5,        "roughnessFactor": 0.5      },      "name": "mat8"    },    {      "pbrMetallicRoughness": {        "metallicFactor": 0.5,        "roughnessFactor": 0.5      },      "name": "mat10"    }  ],  "meshes": [    {      "primitives": [        {          "mode": 4,          "attributes": {            "POSITION": 0,            "NORMAL": 1          },          "material": 0        },        {          "mode": 4,          "attributes": {            "POSITION": 0,            "NORMAL": 1          },          "material": 1        },        {          "mode": 4,          "attributes": {            "POSITION": 0,            "NORMAL": 1          },          "material": 2        },        {          "mode": 4,          "attributes": {            "POSITION": 0,            "NORMAL": 1          },          "material": 3        },        {          "mode": 4,          "attributes": {            "POSITION": 0,            "NORMAL": 1          },          "material": 4        },        {          "mode": 4,          "attributes": {            "POSITION": 0,            "NORMAL": 1          },          "material": 5        },        {          "mode": 4,          "attributes": {            "POSITION": 0,            "NORMAL": 1          },          "material": 6        },        {          "mode": 4,          "attributes": {            "POSITION": 0,            "NORMAL": 1          },          "material": 7        },        {          "mode": 4,          "attributes": {            "POSITION": 0,            "NORMAL": 1          },          "material": 8        }      ]    },    {      "primitives": [        {          "mode": 4,          "attributes": {            "POSITION": 2,            "NORMAL": 3          },          "material": 4        },        {          "mode": 4,          "attributes": {            "POSITION": 2,            "NORMAL": 3          },          "material": 8        }      ]    },    {      "primitives": [        {          "mode": 4,          "attributes": {            "POSITION": 4,            "NORMAL": 5          },          "material": 4        }      ]    },    {      "primitives": [        {          "mode": 4,          "attributes": {            "POSITION": 6,            "NORMAL": 7          },          "material": 0        },        {          "mode": 4,          "attributes": {            "POSITION": 6,            "NORMAL": 7          },          "material": 1        }      ]    },    {      "primitives": [        {          "mode": 4,          "attributes": {            "POSITION": 8,            "NORMAL": 9          },          "material": 0        },        {          "mode": 4,          "attributes": {            "POSITION": 8,            "NORMAL": 9          },          "material": 1        }      ]    },    {      "primitives": [        {          "mode": 4,          "attributes": {            "POSITION": 10,            "NORMAL": 11          },          "material": 1        },        {          "mode": 4,          "attributes": {            "POSITION": 10,            "NORMAL": 11          },          "material": 9        },        {          "mode": 4,          "attributes": {            "POSITION": 10,            "NORMAL": 11          },          "material": 10        }      ]    },    {      "primitives": [        {          "mode": 4,          "attributes": {            "POSITION": 12,            "NORMAL": 13          },          "material": 0        },        {          "mode": 4,          "attributes": {            "POSITION": 12,            "NORMAL": 13          },          "material": 1        },        {          "mode": 4,          "attributes": {            "POSITION": 12,            "NORMAL": 13          },          "material": 3        }      ]    },    {      "primitives": [        {          "mode": 4,          "attributes": {            "POSITION": 14,            "NORMAL": 15          },          "material": 0        },        {          "mode": 4,          "attributes": {            "POSITION": 14,            "NORMAL": 15          },          "material": 1        }      ]    }  ]}